#tb 0: 1/10
#media_type 0: video
#codec_id 0: gif
#dimensions 0: 217x217
#sar 0: 0/1
0,          0,          0,        1,     1297, 0x53e8b1c1
0,          1,          1,        1,      221, 0x52d24d05, F=0x0
0,          2,          2,        1,      139, 0xc9e32ab4, F=0x0
0,          3,          3,        1,      392, 0x9244a858, F=0x0
0,          4,          4,        1,      389, 0xc5bea3e0, F=0x0
0,          5,          5,        1,      438, 0xfa2ab3d6, F=0x0
0,          6,          6,        1,      526, 0x281ed94f, F=0x0
0,          7,          7,        1,      543, 0xa53ee752, F=0x0
0,          8,          8,        1,      446, 0x41d0b8ee, F=0x0
0,          9,          9,        1,      931, 0xe8efa4aa, F=0x0
0,         10,         10,        1,      702, 0x2d1c4ad3, F=0x0
0,         11,         11,        1,     1202, 0xf0cc2be3, F=0x0
0,         12,         12,        1,     1299, 0x189f54cb, F=0x0
0,         13,         13,        1,     1253, 0xcb883414, F=0x0
0,         14,         14,        1,     1338, 0xad6a52d2, F=0x0
0,         15,         15,        1,     1284, 0x14993a0a, F=0x0
0,         16,         16,        1,     1483, 0x216c991d, F=0x0
0,         17,         17,        1,     1792, 0x58eb4c1e, F=0x0
0,         18,         18,        1,     1683, 0x0b49fbbe, F=0x0
0,         19,         19,        1,     1517, 0x9b57ab38, F=0x0
0,         20,         20,        1,     1713, 0x23f21b0d, F=0x0
0,         21,         21,        1,     1753, 0xe1e21eec, F=0x0
0,         22,         22,        1,     1650, 0xf258037d, F=0x0
0,         23,         23,        1,     1726, 0x73111ff6, F=0x0
0,         24,         24,        1,     1908, 0x430b7b09, F=0x0
0,         25,         25,        1,     1815, 0xa5af5368, F=0x0
0,         26,         26,        1,     1923, 0x497f847c, F=0x0
0,         27,         27,        1,     2108, 0x5e2ed19b, F=0x0
0,         28,         28,        1,     2708, 0x6064f1c3, F=0x0
0,         29,         29,        1,     2681, 0x7c4ea945, F=0x0
0,         30,         30,        1,     2903, 0x7cbf4985, F=0x0
0,         31,         31,        1,     3265, 0x81f7d05c, F=0x0
0,         32,         32,        1,     3187, 0x6077c273, F=0x0
0,         33,         33,        1,     3304, 0x3632e867, F=0x0
0,         34,         34,        1,     3608, 0x7961776c, F=0x0
0,         35,         35,        1,     3707, 0x515aa11b, F=0x0
0,         36,         36,        1,     3822, 0x4a03d52c, F=0x0
0,         37,         37,        1,     3635, 0x67607edf, F=0x0
0,         38,         38,        1,     2958, 0x18e8618d, F=0x0
0,         39,         39,        1,     3094, 0x1f1990fa, F=0x0
0,         40,         40,        1,     3102, 0xde16868b, F=0x0
0,         41,         41,        1,     3464, 0x7e6f2dba, F=0x0
0,         42,         42,        1,     4116, 0x91585d9e, F=0x0
0,         43,         43,        1,     4225, 0x9c785cdc, F=0x0
0,         44,         44,        1,     3621, 0x0d0a4ebb, F=0x0
0,         45,         45,        1,     3918, 0xa70ae7ca, F=0x0
0,         46,         46,        1,     4469, 0xa318e475, F=0x0
0,         47,         47,        1,     4601, 0x1ae12f09, F=0x0
0,         48,         48,        1,     4830, 0x57b999bb, F=0x0
0,         49,         49,        1,     5406, 0x744cc456, F=0x0
0,         50,         50,        1,     5274, 0x3d6996e2, F=0x0
0,         51,         51,        1,     5424, 0xc587e525, F=0x0
0,         52,         52,        1,     5527, 0xd5870857, F=0x0
0,         53,         53,        1,     5709, 0xbd715dd4, F=0x0
0,         54,         54,        1,     6168, 0xa5c13fbb, F=0x0
0,         55,         55,        1,     6241, 0x46485256, F=0x0
0,         56,         56,        1,     5919, 0xc0bcc64e, F=0x0
0,         57,         57,        1,     6005, 0x5443fb4d, F=0x0
0,         58,         58,        1,     5954, 0xe7efef37, F=0x0
0,         59,         59,        1,     6476, 0x1aadccc4, F=0x0
0,         60,         60,        1,     6745, 0x6af23ae4, F=0x0
0,         61,         61,        1,     6283, 0x07049084, F=0x0
0,         62,         62,        1,     6649, 0x2c1f3be5, F=0x0
0,         63,         63,        1,     6386, 0xb9848778, F=0x0
0,         64,         64,        1,     6265, 0xce725997, F=0x0
0,         65,         65,        1,     6916, 0xdfac7154, F=0x0
0,         66,         66,        1,     7238, 0x2ace2606, F=0x0
0,         67,         67,        1,     7564, 0x8cf9a84a, F=0x0
0,         68,         68,        1,     7421, 0xaa1a71dc, F=0x0
0,         69,         69,        1,     7484, 0xc67ba899, F=0x0
0,         70,         70,        1,     7604, 0x2479e569, F=0x0
0,         71,         71,        1,     7764, 0x0a1906f8, F=0x0
0,         72,         72,        1,     8023, 0x27206bb7, F=0x0
0,         73,         73,        1,     8136, 0x7705bf63, F=0x0
0,         74,         74,        1,     8109, 0xe05cb4da, F=0x0
0,         75,         75,        1,     7871, 0xce733f35, F=0x0
0,         76,         76,        1,     7968, 0x27ef92ba, F=0x0
0,         77,         77,        1,     8246, 0x5fe7ee2b, F=0x0
0,         78,         78,        1,     8329, 0x809e4b94, F=0x0
0,         79,         79,        1,     8570, 0x179fc163, F=0x0
0,         80,         80,        1,     8754, 0xdb870edf, F=0x0
0,         81,         81,        1,     8586, 0x280ca5f9, F=0x0
0,         82,         82,        1,     8886, 0x445e5b51, F=0x0
0,         83,         83,        1,     9085, 0xba37592e, F=0x0
0,         84,         84,        1,     9318, 0xe970f8b2, F=0x0
0,         85,         85,        1,     9402, 0x37ee4456, F=0x0
0,         86,         86,        1,     9169, 0x171196bf, F=0x0
0,         87,         87,        1,     9470, 0x793837fb, F=0x0
0,         88,         88,        1,     9658, 0x489294a6, F=0x0
0,         89,         89,        1,     9709, 0x980c9d78, F=0x0
0,         90,         90,        1,     9531, 0xc7a83dbb, F=0x0
0,         91,         91,        1,     9899, 0x658f0fcb, F=0x0
0,         92,         92,        1,    10013, 0x434c4b1f, F=0x0
0,         93,         93,        1,    10046, 0x3cdf2e5d, F=0x0
0,         94,         94,        1,    10094, 0xfeb546c5, F=0x0
0,         95,         95,        1,    10446, 0xf0d10017, F=0x0
0,         96,         96,        1,    10591, 0xf90f55af, F=0x0
0,         97,         97,        1,    10589, 0xd4948126, F=0x0
0,         98,         98,        1,    10815, 0x5cb2d81b, F=0x0
0,         99,         99,        1,    11119, 0x25ca4d4b, F=0x0
0,        100,        100,        1,    11202, 0xae566cab, F=0x0
0,        101,        101,        1,    11248, 0x5731a277, F=0x0
0,        102,        102,        1,    11491, 0x1021f4fd, F=0x0
0,        103,        103,        1,    11688, 0x6cb05cf9, F=0x0
0,        104,        104,        1,    11793, 0xf036b8cb, F=0x0
0,        105,        105,        1,    11444, 0x46d90941, F=0x0
0,        106,        106,        1,    11936, 0x204acadf, F=0x0
0,        107,        107,        1,    11940, 0x4bddbdf6, F=0x0
0,        108,        108,        1,    12289, 0x902d708b, F=0x0
0,        109,        109,        1,    12342, 0xc85680b0, F=0x0
0,        110,        110,        1,    12460, 0xf3beb2c0, F=0x0
0,        111,        111,        1,    12703, 0x96493c66, F=0x0
0,        112,        112,        1,    12676, 0xdc9250b1, F=0x0
0,        113,        113,        1,    12965, 0x08dba0c4, F=0x0
0,        114,        114,        1,    13062, 0xac2ce092, F=0x0
0,        115,        115,        1,    13155, 0xb6552cf5, F=0x0
0,        116,        116,        1,    13179, 0x03d61a97, F=0x0
0,        117,        117,        1,    13206, 0x0d8a5a0c, F=0x0
0,        118,        118,        1,    13219, 0x039862cb, F=0x0
0,        119,        119,        1,    13218, 0xede6623f, F=0x0
0,        120,        120,        1,    13475, 0x7672a260, F=0x0
0,        121,        121,        1,    13673, 0xaf0ddf16, F=0x0
0,        122,        122,        1,    13700, 0x1ec9ed11, F=0x0
0,        123,        123,        1,    13829, 0xc6cb2f9a, F=0x0
0,        124,        124,        1,    13954, 0x3f89936d, F=0x0
0,        125,        125,        1,    14071, 0x72d2d42d, F=0x0
0,        126,        126,        1,    14132, 0x6c34cbf9, F=0x0
0,        127,        127,        1,    14339, 0x4c695263, F=0x0
0,        128,        128,        1,    14477, 0xfbcda593, F=0x0
0,        129,        129,        1,    14544, 0xb3d3a37a, F=0x0
0,        130,        130,        1,    14616, 0xb704d286, F=0x0
0,        131,        131,        1,    14906, 0xca9226c6, F=0x0
0,        132,        132,        1,    14986, 0x54e8a122, F=0x0
0,        133,        133,        1,    15150, 0x40bed744, F=0x0
0,        134,        134,        1,    15137, 0x6c4ebc1f, F=0x0
0,        135,        135,        1,    15251, 0xca081273, F=0x0
0,        136,        136,        1,    15345, 0x4d266373, F=0x0
0,        137,        137,        1,    15646, 0x3f64a238, F=0x0
0,        138,        138,        1,    15920, 0xe12020ea, F=0x0
0,        139,        139,        1,    16049, 0x6bbb437e, F=0x0
0,        140,        140,        1,    16236, 0x31a6016d, F=0x0
0,        141,        141,        1,    16270, 0x40f1eb89, F=0x0
0,        142,        142,        1,    16379, 0xe4d0092a, F=0x0
0,        143,        143,        1,    16669, 0x6f22a6ca, F=0x0
0,        144,        144,        1,    16925, 0x564a191d, F=0x0
0,        145,        145,        1,    17157, 0xf1c7cb79, F=0x0
0,        146,        146,        1,    17180, 0xc4b3b5d7, F=0x0
0,        147,        147,        1,    17323, 0xa670a9d8, F=0x0
0,        148,        148,        1,    17405, 0xf499125a, F=0x0
0,        149,        149,        1,    17439, 0xd76af40b, F=0x0
0,        150,        150,        1,    17584, 0x364d53e5, F=0x0
0,        151,        151,        1,    17772, 0xbc218e98, F=0x0
0,        152,        152,        1,    17834, 0xcc19808f, F=0x0
0,        153,        153,        1,    17926, 0x12639cd7, F=0x0
0,        154,        154,        1,    17831, 0xb0f9c051, F=0x0
0,        155,        155,        1,    18150, 0x574022e1, F=0x0
0,        156,        156,        1,    18265, 0x73458364, F=0x0
0,        157,        157,        1,    18345, 0x2d31c3b1, F=0x0
0,        158,        158,        1,    18301, 0x9028389e, F=0x0
0,        159,        159,        1,    18426, 0xe701be30, F=0x0
0,        160,        160,        1,    18615, 0x1bfd4868, F=0x0
0,        161,        161,        1,    18924, 0xa269bcfe, F=0x0
0,        162,        162,        1,    19081, 0xb2f5052e, F=0x0
0,        163,        163,        1,    19176, 0x0676ff5f, F=0x0
0,        164,        164,        1,    19218, 0xfbb40323, F=0x0
0,        165,        165,        1,    19406, 0x714664fe, F=0x0
0,        166,        166,        1,    19488, 0x1acf9f93, F=0x0
0,        167,        167,        1,    19667, 0x50bd11c0, F=0x0
0,        168,        168,        1,    19680, 0xe322168b, F=0x0
0,        169,        169,        1,    19944, 0x25b763c2, F=0x0
0,        170,        170,        1,    19983, 0xfd109bea, F=0x0
0,        171,        171,        1,    20029, 0x565d8efd, F=0x0
0,        172,        172,        1,    20068, 0xadee793f, F=0x0
